<svg width="25" height="25" viewBox="0 0 25 25" fill="none" xmlns="http://www.w3.org/2000/svg">
<path d="M13.5417 5.20833C13.5417 6.35893 10.9766 7.29167 7.81251 7.29167C4.64838 7.29167 2.08334 6.35893 2.08334 5.20833M13.5417 5.20833C13.5417 4.05774 10.9766 3.125 7.81251 3.125C4.64838 3.125 2.08334 4.05774 2.08334 5.20833M13.5417 5.20833V9.8512C12.2693 10.2333 11.4583 10.8114 11.4583 11.4583M2.08334 5.20833V17.7083C2.08334 18.8589 4.64838 19.7917 7.81251 19.7917C9.19754 19.7917 10.4678 19.6129 11.4583 19.3155V11.4583M2.08334 9.375C2.08334 10.5256 4.64838 11.4583 7.81251 11.4583C9.19754 11.4583 10.4678 11.2796 11.4583 10.9821M2.08334 13.5417C2.08334 14.6923 4.64838 15.625 7.81251 15.625C9.19754 15.625 10.4678 15.4463 11.4583 15.1488M22.9167 11.4583C22.9167 12.6089 20.3516 13.5417 17.1875 13.5417C14.0234 13.5417 11.4583 12.6089 11.4583 11.4583M22.9167 11.4583C22.9167 10.3077 20.3516 9.375 17.1875 9.375C14.0234 9.375 11.4583 10.3077 11.4583 11.4583M22.9167 11.4583V19.7917C22.9167 20.9423 20.3516 21.875 17.1875 21.875C14.0234 21.875 11.4583 20.9423 11.4583 19.7917V11.4583M22.9167 15.625C22.9167 16.7756 20.3516 17.7083 17.1875 17.7083C14.0234 17.7083 11.4583 16.7756 11.4583 15.625" stroke="url(#paint0_linear_11_129)" stroke-width="1.6" stroke-linecap="round" stroke-linejoin="round"/>
<defs>
<linearGradient id="paint0_linear_11_129" x1="12.5" y1="3.125" x2="12.5" y2="21.875" gradientUnits="userSpaceOnUse">
<stop stop-color="white"/>
<stop offset="1" stop-color="white" stop-opacity="0.6"/>
</linearGradient>
</defs>
</svg>
