<svg width="20" height="20" viewBox="0 0 20 20" fill="none" xmlns="http://www.w3.org/2000/svg">
<path d="M11.6667 9.16669H6.66667M8.33334 12.5H6.66667M13.3333 5.83335H6.66667M16.6667 8.75002V5.66669C16.6667 4.26656 16.6667 3.56649 16.3942 3.03171C16.1545 2.56131 15.7721 2.17885 15.3016 1.93917C14.7669 1.66669 14.0668 1.66669 12.6667 1.66669H7.33334C5.9332 1.66669 5.23314 1.66669 4.69836 1.93917C4.22795 2.17885 3.8455 2.56131 3.60582 3.03171C3.33334 3.56649 3.33334 4.26656 3.33334 5.66669V14.3334C3.33334 15.7335 3.33334 16.4336 3.60582 16.9683C3.8455 17.4387 4.22795 17.8212 4.69836 18.0609C5.23314 18.3334 5.9332 18.3334 7.33334 18.3334H9.58334M18.3333 18.3334L17.0833 17.0834M17.9167 15C17.9167 16.6109 16.6108 17.9167 15 17.9167C13.3892 17.9167 12.0833 16.6109 12.0833 15C12.0833 13.3892 13.3892 12.0834 15 12.0834C16.6108 12.0834 17.9167 13.3892 17.9167 15Z" stroke="black" stroke-width="1.2" stroke-linecap="round" stroke-linejoin="round"/>
</svg>
