<svg width="25" height="36" viewBox="0 0 25 36" fill="none" xmlns="http://www.w3.org/2000/svg">
<path d="M0 34.9685V33.937L12.4632 33.9588L24.9263 33.9806L24.9507 34.9903L24.975 36H12.4875H0V34.9685ZM0 20.275V7.81549L1.0584 6.94369L2.11679 6.07188L2.13898 19.2958C2.15119 26.5689 2.14269 32.568 2.1201 32.6271C2.09037 32.7048 1.7916 32.7345 1.03951 32.7345H0V20.275ZM3.59585 32.6012C3.56645 32.525 3.54362 26.2303 3.54514 18.6129C3.54727 7.85981 3.57142 4.73333 3.65313 4.62962C3.81032 4.43012 5.49674 3.17343 5.60727 3.17343C5.67685 3.17343 5.69693 7.19017 5.68103 17.9325L5.65918 32.6916L4.65425 32.7157C3.79504 32.7363 3.64156 32.7197 3.59585 32.6012ZM7.08477 17.316V1.89224L7.2991 1.67907C7.41697 1.56183 7.90307 1.15206 8.37932 0.768463L9.24522 0.0710194L9.22339 16.3813L9.20157 32.6916L8.14317 32.7157L7.08477 32.7398V17.316ZM10.7136 16.3673V0L11.0808 0.157847C11.4228 0.30488 13.0929 1.20461 16.1999 2.91563C16.9127 3.30816 18.2541 4.04314 19.1807 4.5489C20.1074 5.05466 21.1766 5.6413 21.5567 5.85255C24.0712 7.24978 24.6841 7.59933 24.8183 7.71273C24.9608 7.83314 24.9695 8.46139 24.9695 18.6548C24.9695 24.6026 24.9375 29.4691 24.8984 29.4691C24.8184 29.4691 23.9546 28.5855 22.4207 26.9346C21.5026 25.9465 20.7053 25.091 20.1743 24.5244C20.0024 24.3409 18.2224 22.4545 17.058 21.2216C16.7221 20.8659 16.1777 20.2848 15.8484 19.9302C14.2145 18.1712 13.0093 16.9228 12.945 16.9228C12.9057 16.9228 12.8736 17.3244 12.8736 17.8153V18.7079L13.9305 19.8562C14.5119 20.4878 15.1242 21.1564 15.2913 21.342C15.4584 21.5276 15.6535 21.7422 15.7247 21.8189C15.796 21.8957 16.3013 22.4399 16.8475 23.0283C17.3938 23.6168 18.0578 24.3302 18.3231 24.6138C20.4951 26.9353 21.631 28.1453 22.155 28.6957C24.1549 30.7962 24.8995 31.6329 24.9603 31.8479C24.998 31.9811 25.0112 32.235 24.9897 32.4123L24.9506 32.7345H24.0711H23.1916L21.899 31.3462C21.188 30.5826 20.4077 29.7415 20.165 29.4771C19.7219 28.9944 17.4911 26.5857 17.3253 26.411C17.2766 26.3596 16.8479 25.896 16.3727 25.3806C15.6425 24.5887 14.3635 23.2396 13.1623 21.9943L12.8736 21.6949L12.8776 25.2168L12.8817 28.7386L14.7784 30.6609C15.8216 31.7182 16.6751 32.6173 16.6751 32.6589C16.6751 32.701 15.3533 32.7345 13.6944 32.7345H10.7136V16.3673ZM22.8095 16.454V8.86295L22.3991 8.608C21.8312 8.25519 18.8393 6.58905 16.4591 5.30007C15.9364 5.01699 15.2949 4.66025 15.0335 4.50732C14.7722 4.35438 14.1793 4.02772 13.716 3.7814L12.8736 3.33357V8.68031V14.0271L14.1912 15.3675C14.9159 16.1047 16.13 17.3653 16.8892 18.1688C20.2961 21.7742 22.642 24.1481 22.739 24.0885C22.7778 24.0646 22.8095 20.6291 22.8095 16.454Z" fill="white"/>
</svg>
