<svg width="20" height="20" viewBox="0 0 20 20" fill="none" xmlns="http://www.w3.org/2000/svg">
<path d="M1.66666 14.1667V14.0415C1.66666 13.7778 1.66666 13.6459 1.68684 13.5174C1.70475 13.4033 1.73446 13.2914 1.77551 13.1835C1.82174 13.062 1.88716 12.9475 2.01802 12.7185L5 7.5M1.66666 14.1667C1.66666 16.0076 3.15905 17.5 5 17.5C6.84095 17.5 8.33333 16.0076 8.33333 14.1667M1.66666 14.1667V14C1.66666 13.7666 1.66666 13.65 1.71208 13.5608C1.75203 13.4824 1.81577 13.4187 1.89417 13.3787C1.9833 13.3333 2.09998 13.3333 2.33333 13.3333H7.66666C7.90002 13.3333 8.0167 13.3333 8.10583 13.3787C8.18423 13.4187 8.24797 13.4824 8.28792 13.5608C8.33333 13.65 8.33333 13.7666 8.33333 14V14.1667M5 7.5L7.98198 12.7185C8.11283 12.9475 8.17826 13.062 8.22449 13.1835C8.26553 13.2914 8.29525 13.4033 8.31316 13.5174C8.33333 13.6459 8.33333 13.7778 8.33333 14.0415V14.1667M5 7.5L15 5.83333M11.6667 12.5V12.3748C11.6667 12.1111 11.6667 11.9792 11.6868 11.8507C11.7047 11.7367 11.7345 11.6248 11.7755 11.5168C11.8217 11.3953 11.8872 11.2808 12.018 11.0518L15 5.83333M11.6667 12.5C11.6667 14.3409 13.159 15.8333 15 15.8333C16.8409 15.8333 18.3333 14.3409 18.3333 12.5M11.6667 12.5V12.3333C11.6667 12.1 11.6667 11.9833 11.7121 11.8942C11.752 11.8158 11.8158 11.752 11.8942 11.7121C11.9833 11.6667 12.1 11.6667 12.3333 11.6667H17.6667C17.9 11.6667 18.0167 11.6667 18.1058 11.7121C18.1842 11.752 18.248 11.8158 18.2879 11.8942C18.3333 11.9833 18.3333 12.1 18.3333 12.3333V12.5M15 5.83333L17.982 11.0518C18.1128 11.2808 18.1783 11.3953 18.2245 11.5168C18.2655 11.6248 18.2952 11.7367 18.3132 11.8507C18.3333 11.9792 18.3333 12.1111 18.3333 12.3748V12.5M10 2.5V6.66667" stroke="white" stroke-width="1.2" stroke-linecap="round" stroke-linejoin="round"/>
</svg>
