<svg width="30" height="26" viewBox="0 0 30 26" fill="none" xmlns="http://www.w3.org/2000/svg">
<path d="M8.79241 21.9127C7.741 21.9127 6.82668 21.6354 6.04955 21.0807C5.27242 20.4798 4.67812 19.6709 4.2667 18.654C3.85527 17.6371 3.64955 16.4816 3.64955 15.1874C3.64955 13.6158 3.90098 12.1136 4.40384 10.6807C4.95241 9.20161 5.77527 7.83804 6.87241 6.59004C7.96955 5.34204 9.38671 4.30203 11.1238 3.47003L14.0038 6.17404C12.7696 6.59004 11.6724 7.1678 10.7124 7.90737C9.79814 8.64694 9.04385 9.47894 8.44955 10.4034C7.90098 11.3278 7.5124 12.2754 7.28384 13.246L7.55813 13.3847C7.741 13.246 7.96955 13.1305 8.24384 13.038C8.51813 12.9456 8.92955 12.8994 9.47812 12.8994C10.0267 12.8994 10.5981 13.0611 11.1924 13.3847C11.7867 13.7083 12.2667 14.1936 12.6324 14.8407C13.0438 15.4416 13.2496 16.2505 13.2496 17.2674C13.2496 18.0994 13.0438 18.862 12.6324 19.5554C12.2667 20.2487 11.741 20.8265 11.0553 21.2887C10.3696 21.7047 9.61527 21.9127 8.79241 21.9127ZM21.6838 21.9127C20.6324 21.9127 19.7181 21.6354 18.941 21.0807C18.1639 20.4798 17.5696 19.6709 17.1581 18.654C16.7467 17.6371 16.541 16.4816 16.541 15.1874C16.541 13.6158 16.7924 12.1136 17.2953 10.6807C17.8438 9.20161 18.6667 7.83804 19.7638 6.59004C20.861 5.34204 22.2781 4.30203 24.0153 3.47003L26.8953 6.17404C25.661 6.59004 24.5638 7.1678 23.6038 7.90737C22.6896 8.64694 21.9353 9.47894 21.341 10.4034C20.7924 11.3278 20.4038 12.2754 20.1753 13.246L20.4496 13.3847C20.6324 13.246 20.861 13.1305 21.1353 13.038C21.4096 12.9456 21.821 12.8994 22.3696 12.8994C22.9181 12.8994 23.4895 13.0611 24.0838 13.3847C24.6781 13.7083 25.1581 14.1936 25.5238 14.8407C25.9353 15.4416 26.141 16.2505 26.141 17.2674C26.141 18.0994 25.9353 18.862 25.5238 19.5554C25.1581 20.2487 24.6324 20.8265 23.9467 21.2887C23.261 21.7047 22.5067 21.9127 21.6838 21.9127Z" fill="#23282F"/>
</svg>
