<svg width="81" height="81" viewBox="0 0 81 81" fill="none" xmlns="http://www.w3.org/2000/svg">
<g filter="url(#filter0_i_11_362)">
<rect width="81" height="81" rx="40.5" fill="#23282F"/>
<path d="M28 57.9685V56.937L40.4632 56.9588L52.9263 56.9806L52.9507 57.9903L52.975 59H40.4875H28V57.9685ZM28 43.275V30.8155L29.0584 29.9437L30.1168 29.0719L30.139 42.2958C30.1512 49.5689 30.1427 55.568 30.1201 55.6271C30.0904 55.7048 29.7916 55.7345 29.0395 55.7345H28V43.275ZM31.5958 55.6012C31.5664 55.525 31.5436 49.2303 31.5451 41.6129C31.5473 30.8598 31.5714 27.7333 31.6531 27.6296C31.8103 27.4301 33.4967 26.1734 33.6073 26.1734C33.6769 26.1734 33.6969 30.1902 33.681 40.9325L33.6592 55.6916L32.6542 55.7157C31.795 55.7363 31.6416 55.7197 31.5958 55.6012ZM35.0848 40.316V24.8922L35.2991 24.6791C35.417 24.5618 35.9031 24.1521 36.3793 23.7685L37.2452 23.071L37.2234 39.3813L37.2016 55.6916L36.1432 55.7157L35.0848 55.7398V40.316ZM38.7136 39.3673V23L39.0808 23.1578C39.4228 23.3049 41.0929 24.2046 44.1999 25.9156C44.9127 26.3082 46.2541 27.0431 47.1807 27.5489C48.1074 28.0547 49.1766 28.6413 49.5567 28.8525C52.0712 30.2498 52.6841 30.5993 52.8183 30.7127C52.9608 30.8331 52.9695 31.4614 52.9695 41.6548C52.9695 47.6026 52.9375 52.4691 52.8984 52.4691C52.8184 52.4691 51.9546 51.5855 50.4207 49.9346C49.5026 48.9465 48.7053 48.091 48.1743 47.5244C48.0024 47.3409 46.2224 45.4545 45.058 44.2216C44.7221 43.8659 44.1777 43.2848 43.8484 42.9302C42.2145 41.1712 41.0093 39.9228 40.945 39.9228C40.9057 39.9228 40.8736 40.3244 40.8736 40.8153V41.7079L41.9305 42.8562C42.5119 43.4878 43.1242 44.1564 43.2913 44.342C43.4584 44.5276 43.6535 44.7422 43.7247 44.8189C43.796 44.8957 44.3013 45.4399 44.8475 46.0283C45.3938 46.6168 46.0578 47.3302 46.3231 47.6138C48.4951 49.9353 49.631 51.1453 50.155 51.6957C52.1549 53.7962 52.8995 54.6329 52.9603 54.8479C52.998 54.9811 53.0112 55.235 52.9897 55.4123L52.9506 55.7345H52.0711H51.1916L49.899 54.3462C49.188 53.5826 48.4077 52.7415 48.165 52.4771C47.7219 51.9944 45.4911 49.5857 45.3253 49.411C45.2766 49.3596 44.8479 48.896 44.3727 48.3806C43.6425 47.5887 42.3635 46.2396 41.1623 44.9943L40.8736 44.6949L40.8776 48.2168L40.8817 51.7386L42.7784 53.6609C43.8216 54.7182 44.6751 55.6173 44.6751 55.6589C44.6751 55.701 43.3533 55.7345 41.6944 55.7345H38.7136V39.3673ZM50.8095 39.454V31.863L50.3991 31.608C49.8312 31.2552 46.8393 29.5891 44.4591 28.3001C43.9364 28.017 43.2949 27.6603 43.0335 27.5073C42.7722 27.3544 42.1793 27.0277 41.716 26.7814L40.8736 26.3336V31.6803V37.0271L42.1912 38.3675C42.9159 39.1047 44.13 40.3653 44.8892 41.1688C48.2961 44.7742 50.642 47.1481 50.739 47.0885C50.7778 47.0646 50.8095 43.6291 50.8095 39.454Z" fill="white"/>
</g>
<defs>
<filter id="filter0_i_11_362" x="0" y="0" width="91" height="91" filterUnits="userSpaceOnUse" color-interpolation-filters="sRGB">
<feFlood flood-opacity="0" result="BackgroundImageFix"/>
<feBlend mode="normal" in="SourceGraphic" in2="BackgroundImageFix" result="shape"/>
<feColorMatrix in="SourceAlpha" type="matrix" values="0 0 0 0 0 0 0 0 0 0 0 0 0 0 0 0 0 0 127 0" result="hardAlpha"/>
<feOffset dx="10" dy="10"/>
<feGaussianBlur stdDeviation="20"/>
<feComposite in2="hardAlpha" operator="arithmetic" k2="-1" k3="1"/>
<feColorMatrix type="matrix" values="0 0 0 0 1 0 0 0 0 1 0 0 0 0 1 0 0 0 0.2 0"/>
<feBlend mode="normal" in2="shape" result="effect1_innerShadow_11_362"/>
</filter>
</defs>
</svg>
