<svg width="125" height="111" viewBox="0 0 125 111" fill="none" xmlns="http://www.w3.org/2000/svg">
<g id="Frame">
<path id="Vector" d="M108.389 57.97C116.088 57.97 119.938 62.1253 119.938 70.4358V92.708C119.938 101.019 116.088 105.174 108.389 105.174H82.6513C74.9516 105.174 71.1017 101.019 71.1017 92.708V70.4358C71.1017 56.1417 72.0367 44.1745 73.9063 34.5343C75.7765 24.7832 80.5607 16.9159 88.2603 10.9323C93.8702 6.61085 98.2702 6.16761 101.46 9.60263L107.729 16.4173C111.689 20.628 111.084 24.7832 105.914 28.8831C102.395 31.6533 100.029 35.2545 98.8196 39.6868C97.6098 44.1191 97.0053 50.2135 97.0053 57.97H108.389ZM39.0939 57.97C46.7933 57.97 50.6431 62.1253 50.6431 70.4358V92.708C50.6431 101.019 46.7933 105.174 39.0939 105.174H13.3556C5.65613 105.174 1.8064 101.019 1.8064 92.708V70.4358C1.8064 56.1417 2.74133 44.1745 4.61121 34.5343C6.48108 24.7832 11.2657 16.9159 18.9652 10.9323C24.5748 6.61085 28.9745 6.16761 32.1644 9.60263L38.4339 16.4173C42.3936 20.628 41.7887 24.7832 36.619 28.8831C33.0992 31.6533 30.7344 35.2545 29.5245 39.6868C28.3146 44.1191 27.7096 50.2135 27.7096 57.97H39.0939Z" fill="#23282F" fill-opacity="0.1"/>
</g>
</svg>
